<svg height="606" width="720" xmlns="http://www.w3.org/2000/svg">
<rect height="606" fill="#555" width="720"></rect>
<text fill="#7f7" font-family="Courier New" font-size="12" xml:space="preserve">
<tspan x="10" y="26">7 megabytes installed</tspan>
<tspan x="10" y="42"></tspan>
<tspan x="10" y="58">node_modules</tspan>
<tspan x="10" y="74">└─┬ precommit-hook@3.0.0 </tspan>
<tspan x="10" y="90">  ├── git-validate@2.2.2 </tspan>
<tspan x="10" y="106">  └─┬ jshint@2.9.4 </tspan>
<tspan x="10" y="122">    ├─┬ cli@1.0.1 </tspan>
<tspan x="10" y="138">    │ └─┬ glob@7.1.1 </tspan>
<tspan x="10" y="154">    │   ├── fs.realpath@1.0.0 </tspan>
<tspan x="10" y="170">    │   ├─┬ inflight@1.0.6 </tspan>
<tspan x="10" y="186">    │   │ └── wrappy@1.0.2 </tspan>
<tspan x="10" y="202">    │   ├── inherits@2.0.3 </tspan>
<tspan x="10" y="218">    │   ├── once@1.4.0 </tspan>
<tspan x="10" y="234">    │   └── path-is-absolute@1.0.1 </tspan>
<tspan x="10" y="250">    ├─┬ console-browserify@1.1.0 </tspan>
<tspan x="10" y="266">    │ └── date-now@0.1.4 </tspan>
<tspan x="10" y="282">    ├── exit@0.1.2 </tspan>
<tspan x="10" y="298">    ├─┬ htmlparser2@3.8.3 </tspan>
<tspan x="10" y="314">    │ ├── domelementtype@1.3.0 </tspan>
<tspan x="10" y="330">    │ ├── domhandler@2.3.0 </tspan>
<tspan x="10" y="346">    │ ├─┬ domutils@1.5.1 </tspan>
<tspan x="10" y="362">    │ │ └─┬ dom-serializer@0.1.0 </tspan>
<tspan x="10" y="378">    │ │   ├── domelementtype@1.1.3 </tspan>
<tspan x="10" y="394">    │ │   └── entities@1.1.1 </tspan>
<tspan x="10" y="410">    │ ├── entities@1.0.0 </tspan>
<tspan x="10" y="426">    │ └─┬ readable-stream@1.1.14 </tspan>
<tspan x="10" y="442">    │   ├── core-util-is@1.0.2 </tspan>
<tspan x="10" y="458">    │   ├── isarray@0.0.1 </tspan>
<tspan x="10" y="474">    │   └── string_decoder@0.10.31 </tspan>
<tspan x="10" y="490">    ├── lodash@3.7.0 </tspan>
<tspan x="10" y="506">    ├─┬ minimatch@3.0.3 </tspan>
<tspan x="10" y="522">    │ └─┬ brace-expansion@1.1.7 </tspan>
<tspan x="10" y="538">    │   ├── balanced-match@0.4.2 </tspan>
<tspan x="10" y="554">    │   └── concat-map@0.0.1 </tspan>
<tspan x="10" y="570">    ├── shelljs@0.3.0 </tspan>
<tspan x="10" y="586">    └── strip-json-comments@1.0.4</tspan>
</text>
</svg>
